<?xml version="1.0" encoding="UTF-8"?>
<svg id="Capa_1" data-name="Capa 1" xmlns="http://www.w3.org/2000/svg" viewBox="0 0 346.51 202.51">
  <path d="M330.68,70.84c0-.58-.2-1.15-.58-1.67l-25.16-34.76c-.92-1.28-2.82-2.08-4.9-2.08h-20.86c-2.08,0-3.98.8-4.91,2.08l-25.15,34.76c-.38.52-.58,1.09-.58,1.67v17.96H97.87v-17.96c0-.58-.2-1.15-.58-1.67l-25.16-34.76c-.92-1.28-2.82-2.08-4.9-2.08h-20.86c-2.08,0-3.98.8-4.91,2.08l-25.15,34.76c-.12.16-.21.32-.29.49h-.29v85.29h0v18.84h10.56c.08.07,2.06,0,2.06,0h302.43v-84.99h-.1v-17.96Z"/>
</svg>