<?xml version="1.0" encoding="UTF-8"?>
<svg id="Capa_1" data-name="Capa 1" xmlns="http://www.w3.org/2000/svg" viewBox="0 0 346.51 202.51">
  <path d="M328.16,91.99c-.07-.51-.15-1.03-.24-1.53v-.05h0c-.39-2.35-.99-4.66-1.77-6.88-1.89-5.37-4.82-10.23-8.72-14.46-.85-.94-1.82-1.9-2.86-2.83-2.66-2.37-7.73-4.92-11.53-6.62-2.15-.98-4.66-.33-6.07,1.57l-10.73,14.45c-.87-3.67-2.13-7.21-3.71-10.77-4.97-11.22-12.97-19.98-24.15-25.21l-1.57-.66c-1.52-.64.54,8.36-.81,14.49-1.72,7.83-6.13,14.8-12.6,19.78-9.13,7.03-15.24,16.74-17.41,27.44h-1.02v-8.11c0-1.76-.11-3.56-.34-5.36-.07-.51-.15-1.03-.24-1.53v-.05h0c-.39-2.35-.99-4.66-1.77-6.88-1.89-5.37-4.82-10.23-8.72-14.46-.85-.94-1.82-1.9-2.86-2.83-2.66-2.37-7.73-4.92-11.53-6.62-2.15-.98-4.66-.33-6.07,1.57l-10.73,14.45c-.87-3.67-2.13-7.21-3.71-10.77-4.97-11.22-12.97-19.98-24.15-25.21l-1.57-.66c-1.52-.64.54,8.36-.81,14.49-1.72,7.83-6.13,14.8-12.6,19.78-10.47,8.06-16.97,19.64-18.11,32.2h-1.2c-2.17-10.7-8.28-20.41-17.41-27.44-6.47-4.98-10.88-11.95-12.6-19.78-1.35-6.12.71-15.13-.81-14.49l-1.57.66c-11.18,5.24-19.18,13.99-24.15,25.21-1.58,3.56-2.84,7.1-3.71,10.77l-10.73-14.45c-1.42-1.9-3.92-2.55-6.07-1.57-3.79,1.71-8.87,4.25-11.53,6.62-1.03.93-2.01,1.89-2.86,2.83-3.9,4.23-6.83,9.09-8.72,14.46-.78,2.22-1.38,4.53-1.77,6.88h0v.05c-.09.51-.17,1.02-.24,1.53-.22,1.8-.34,3.6-.34,5.36v42.95h.76c.32,2.92,1.09,5.78,2.27,8.55,1.88,4.4,4.76,8.39,8.53,11.83,1.04.96,2.15,1.86,3.29,2.69,4.04,2.96,8.63,5.21,13.65,6.67,3.34.97,6.83,1.58,10.39,1.81.46.03.92.04,1.39.06h0s.04,0,.04,0c1.21.04,2.42.04,3.62,0h222.6c1.2.04,2.41.04,3.62,0h.04c.46-.02.92-.03,1.39-.06,3.56-.23,7.05-.83,10.39-1.81,5.02-1.46,9.62-3.71,13.65-6.67,1.13-.83,2.24-1.73,3.29-2.69,3.77-3.44,6.65-7.43,8.53-11.83,1.19-2.77,1.95-5.64,2.27-8.55h.76v-42.95c0-1.76-.11-3.56-.34-5.36Z"/>
</svg>