<?xml version="1.0" encoding="UTF-8"?>
<svg id="Capa_1" data-name="Capa 1" xmlns="http://www.w3.org/2000/svg" viewBox="0 0 346.51 202.51">
  <path d="M301.41,79.11h-8.2c-9.09,0-16.96,5.28-20.72,12.94-3.75-7.66-11.63-12.94-20.72-12.94h-8.18c-7.49,0-14.16,3.59-18.37,9.14v-34.25l-.02-2.34h-.09c-1.21-15.33-14.07-27.43-29.69-27.43h-44.35c-7.93,0-15.4,3.11-21.04,8.75-5.64,5.64-8.75,13.11-8.75,21.02v34.25c-4.21-5.55-10.88-9.14-18.37-9.14h-8.2c-9.09,0-16.96,5.28-20.72,12.94-3.75-7.66-11.63-12.94-20.71-12.94h-8.18c-12.71,0-23.06,10.34-23.06,23.06v63.93h302.43v-63.93c0-12.71-10.34-23.06-23.06-23.06Z"/>
</svg>